<?xml version="1.0" encoding="utf-8"?>
<!-- Generator: Adobe Illustrator 19.0.0, SVG Export Plug-In . SVG Version: 6.00 Build 0)  -->
<svg version="1.1" id="Layer_1" xmlns="http://www.w3.org/2000/svg" xmlns:xlink="http://www.w3.org/1999/xlink" x="0px" y="0px"
	 viewBox="-81 259.5 217.8 149.5" style="enable-background:new -81 259.5 217.8 149.5;" xml:space="preserve">
<style type="text/css">
	.st0{fill:#5E81AC;}
	.st1{fill:#4C566A;stroke:#000000;stroke-width:5;stroke-linecap:square;stroke-miterlimit:10;}
	.st2{fill:#FFFFFF;stroke:#000000;stroke-width:5;stroke-linecap:square;stroke-miterlimit:10;}
	.st3{fill:#ECEFF4;stroke:#000000;stroke-width:5;stroke-linecap:square;stroke-miterlimit:10;}
</style>
<g id="Layer_1_1_">
	<path id="XMLID_45_" class="st0" d="M-53,404c-12.7,0-23-10.3-23-23v-93.5c0-12.7,10.3-23,23-23h161.8c12.7,0,23,10.3,23,23V381
		c0,12.7-10.3,23-23,23H-53z"/>
	<path id="XMLID_42_" d="M108.8,269.5c9.9,0,18,8.1,18,18V381c0,9.9-8.1,18-18,18H-53c-9.9,0-18-8.1-18-18v-93.5c0-9.9,8.1-18,18-18
		H108.8 M108.8,259.5H-53c-15.4,0-28,12.6-28,28V381c0,15.4,12.6,28,28,28h161.8c15.4,0,28-12.6,28-28v-93.5
		C136.8,272.1,124.3,259.5,108.8,259.5L108.8,259.5z"/>
</g>
<g id="Layer_2">
	<polyline id="XMLID_5_" class="st1" points="77,399.7 70.3,381.2 -17.2,381.2 -23.7,400.1 	"/>
	<circle id="XMLID_2_" class="st2" cx="-13.9" cy="334.2" r="13.5"/>
	<circle id="XMLID_4_" class="st2" cx="68.1" cy="334.2" r="13.5"/>
	<path id="XMLID_3_" class="st3" d="M39.8,343.2H13.5c-1.9,0-3.5-1.6-3.5-3.5v-11c0-1.9,1.6-3.5,3.5-3.5h26.3c1.9,0,3.5,1.6,3.5,3.5
		v11C43.3,341.7,41.8,343.2,39.8,343.2z"/>
	<circle id="XMLID_6_" cx="-57.3" cy="282.2" r="2.8"/>
	<circle id="XMLID_8_" cx="-57.3" cy="388.2" r="2.8"/>
	<circle id="XMLID_11_" cx="113.7" cy="282.2" r="2.8"/>
	<circle id="XMLID_9_" cx="113.7" cy="388.2" r="2.8"/>
</g>
</svg>
